<svg width="53" height="34" viewBox="0 0 53 34" fill="none" xmlns="http://www.w3.org/2000/svg">
<path d="M21.5674 15.134C24.4599 13.7616 25.9698 11.6849 25.9698 8.45257C25.9698 2.07813 21.1854 0.525146 15.6642 0.525146H0.465088V32.5238H16.0917C21.9495 32.5238 27.4524 29.7338 27.4524 23.233C27.4524 19.2151 25.5332 16.2446 21.5674 15.134ZM7.55075 5.98767H14.1998C16.7557 5.98767 19.057 6.70095 19.057 9.64439C19.057 12.3621 17.2651 13.4546 14.7365 13.4546H7.55075V5.98767ZM15.1276 27.0883H7.55075V18.2761H15.2731C18.393 18.2761 20.3668 19.5672 20.3668 22.8447C20.3668 26.0771 18.011 27.0883 15.1276 27.0883ZM47.7362 5.35564H34.6654V2.20453H47.7362V5.35564ZM52.8571 21.2737C52.8571 14.4207 48.8186 8.70538 41.4964 8.70538C34.3835 8.70538 29.5536 14.0144 29.5536 20.9667C29.5536 28.1808 34.1288 33.1287 41.4964 33.1287C47.0722 33.1287 50.6832 30.6367 52.4205 25.3367H46.7629C46.1535 27.3141 43.643 28.3614 41.6965 28.3614C37.9399 28.3614 35.9661 26.1764 35.9661 22.4655H52.8026C52.8298 22.0863 52.8571 21.68 52.8571 21.2737ZM35.9752 18.4567C36.1844 15.4139 38.2219 13.5088 41.2963 13.5088C44.5162 13.5088 46.1353 15.3868 46.4082 18.4567H35.9752Z" fill="#3B3B3B"/>
</svg>
