<svg width="1845" height="1080" viewBox="0 0 1845 1080" fill="none" xmlns="http://www.w3.org/2000/svg">
<path d="M1845 0H839.7C708.8 143.2 628 339.7 628 556.5C628 757.4 697.3 940.8 811.6 1080.5H1845V0Z" fill="#EDF8FF"/>
<path d="M62.7198 379.071C97.2376 379.071 125.22 351.089 125.22 316.571C125.22 282.053 97.2376 254.071 62.7198 254.071C28.202 254.071 0.219818 282.053 0.219818 316.571C0.219818 351.089 28.202 379.071 62.7198 379.071Z" fill="#EDF8FF"/>
<path d="M371.306 909.924C387.598 909.924 400.806 896.716 400.806 880.424C400.806 864.131 387.598 850.924 371.306 850.924C355.013 850.924 341.806 864.131 341.806 880.424C341.806 896.716 355.013 909.924 371.306 909.924Z" fill="#EDF8FF"/>
</svg>
