<svg width="34" height="35" viewBox="0 0 34 35" fill="none" xmlns="http://www.w3.org/2000/svg">
<path d="M16.6661 0.848511C7.49068 0.848511 0.026001 8.31319 0.026001 17.4886C0.026001 26.664 7.49068 34.1287 16.6661 34.1287C25.8415 34.1287 33.3061 26.664 33.3061 17.4886C33.3061 8.31319 25.8415 0.848511 16.6661 0.848511ZM27.668 8.52213C29.6475 10.9407 30.8463 14.0212 30.8776 17.3759C30.409 17.2768 25.7099 16.3237 20.9806 16.9185C20.5947 15.9763 20.2304 15.1476 19.7315 14.1263C24.9866 11.9807 27.3683 8.92747 27.668 8.52213ZM26.0879 6.87852C25.8323 7.24266 23.6927 10.1184 18.6387 12.0127C16.3097 7.73354 13.7282 4.21819 13.3354 3.69215C17.8427 2.60565 22.5925 3.77736 26.0879 6.87852ZM10.6234 4.64755C10.9981 5.16144 13.5379 8.68115 15.893 12.8675C9.24453 14.6331 3.38877 14.6076 2.75309 14.5992C3.67474 10.1888 6.647 6.52311 10.6234 4.64755ZM2.4529 17.5103C2.4529 17.3649 2.45579 17.2203 2.46015 17.0759C3.082 17.0887 9.96965 17.1775 17.0676 15.0532C17.4745 15.8495 17.8631 16.6579 18.2199 17.4653C13.0803 18.9129 8.41072 23.0697 6.10681 27.0136C3.83671 24.4939 2.4529 21.1608 2.4529 17.5103ZM7.94191 28.723C9.42657 25.688 13.4558 21.7703 19.186 19.8155C21.1814 25.001 22.0067 29.3468 22.218 30.5938C17.6479 32.5405 12.1525 32.0064 7.94191 28.723ZM24.6075 29.2926C24.4618 28.428 23.7053 24.2673 21.8463 19.1588C26.3002 18.4458 30.2133 19.6129 30.6996 19.7663C30.066 23.7211 27.7961 27.1365 24.6075 29.2926Z" fill="#3B3B3B"/>
</svg>
