<svg width="35" height="35" viewBox="0 0 35 35" fill="none" xmlns="http://www.w3.org/2000/svg">
<path d="M17.1925 0.848633C7.86742 0.848633 0.305725 8.60027 0.305725 18.1628C0.305725 25.8127 5.1443 32.3028 11.8539 34.5922C12.6979 34.7525 13.0077 34.2166 13.0077 33.7593C13.0077 33.3464 12.9921 31.9825 12.9848 30.5357C8.28688 31.5831 7.29556 28.4929 7.29556 28.4929C6.5274 26.4916 5.42059 25.9595 5.42059 25.9595C3.88845 24.8849 5.53608 24.9069 5.53608 24.9069C7.23181 25.0291 8.12469 26.6912 8.12469 26.6912C9.63082 29.3381 12.0751 28.5729 13.0388 28.1305C13.1903 27.0114 13.628 26.2476 14.1109 25.8152C10.3601 25.3774 6.41722 23.8928 6.41722 17.2585C6.41722 15.3682 7.07689 13.8237 8.15713 12.6111C7.98179 12.175 7.40378 10.414 8.32072 8.02914C8.32072 8.02914 9.73876 7.5638 12.9658 9.80391C14.3128 9.42028 15.7574 9.22789 17.1925 9.2213C18.6276 9.22789 20.0734 9.42028 21.4229 9.80391C24.646 7.5638 26.0621 8.02914 26.0621 8.02914C26.9813 10.414 26.403 12.175 26.2276 12.6111C27.3104 13.8237 27.9656 15.3682 27.9656 17.2585C27.9656 23.9086 24.0151 25.3728 20.2548 25.8015C20.8605 26.3388 21.4002 27.3925 21.4002 29.0078C21.4002 31.3245 21.3807 33.189 21.3807 33.7593C21.3807 34.22 21.6846 34.7599 22.5406 34.5899C29.2466 32.2979 34.079 25.8101 34.079 18.1628C34.079 8.60027 26.5185 0.848633 17.1925 0.848633" fill="#3B3B3B"/>
<path d="M6.7514 25.589C6.71427 25.6742 6.58253 25.6998 6.46251 25.6413C6.34026 25.5853 6.27159 25.4692 6.31123 25.3838C6.34751 25.2961 6.47954 25.2716 6.60151 25.3304C6.72404 25.3863 6.79382 25.5036 6.7514 25.589" fill="#3B3B3B"/>
<path d="M7.43412 26.3635C7.35373 26.4393 7.19659 26.4041 7.08997 26.2843C6.97972 26.1648 6.95906 26.005 7.04056 25.9281C7.12346 25.8523 7.27586 25.8877 7.38639 26.0073C7.49664 26.1282 7.51813 26.2869 7.43412 26.3635" fill="#3B3B3B"/>
<path d="M8.09867 27.3511C7.99539 27.424 7.82653 27.3556 7.72214 27.2031C7.61886 27.0507 7.61886 26.8679 7.72437 26.7946C7.82904 26.7214 7.99539 26.7873 8.10118 26.9386C8.20417 27.0936 8.20417 27.2764 8.09867 27.3511" fill="#3B3B3B"/>
<path d="M9.00915 28.3051C8.91676 28.4087 8.71999 28.3809 8.57596 28.2395C8.42859 28.1012 8.38756 27.9051 8.48022 27.8015C8.57373 27.6976 8.77162 27.7268 8.91676 27.867C9.06302 28.005 9.10768 28.2026 9.00915 28.3051" fill="#3B3B3B"/>
<path d="M10.2652 28.8588C10.2245 28.9931 10.035 29.0541 9.84405 28.9971C9.65341 28.9383 9.52865 28.781 9.56716 28.6453C9.6068 28.5102 9.79716 28.4466 9.98947 28.5076C10.1798 28.5661 10.3049 28.7223 10.2652 28.8588" fill="#3B3B3B"/>
<path d="M11.6446 28.9616C11.6493 29.103 11.4875 29.2203 11.287 29.2228C11.0855 29.2274 10.9225 29.1129 10.9203 28.9738C10.9203 28.831 11.0785 28.7149 11.2801 28.7115C11.4805 28.7076 11.6446 28.8211 11.6446 28.9616" fill="#3B3B3B"/>
<path d="M12.9283 28.7395C12.9523 28.8774 12.813 29.0191 12.614 29.0569C12.4184 29.0932 12.2372 29.008 12.2124 28.8712C12.1881 28.7298 12.3299 28.5882 12.5253 28.5515C12.7245 28.5163 12.9029 28.5992 12.9283 28.7395" fill="#3B3B3B"/>
</svg>
