<svg width="588" height="549" viewBox="0 0 588 549" fill="none" xmlns="http://www.w3.org/2000/svg">
<g clip-path="url(#clip0)">
<path d="M470.761 178.074V38.8038C470.761 17.8004 453.735 0.773804 432.731 0.773804L215.091 0.773804C194.088 0.773804 177.061 17.8004 177.061 38.8038V178.074C177.061 199.077 194.088 216.104 215.091 216.104L432.731 216.104C453.735 216.104 470.761 199.077 470.761 178.074Z" fill="#3B3B3B"/>
<path d="M323.911 209.514C329.224 209.514 333.531 205.207 333.531 199.894C333.531 194.581 329.224 190.274 323.911 190.274C318.598 190.274 314.291 194.581 314.291 199.894C314.291 205.207 318.598 209.514 323.911 209.514Z" fill="#F0F0F0"/>
<path d="M447.391 183.044V28.6238L200.421 28.6238V183.044L447.391 183.044Z" fill="#F0F0F0"/>
<path d="M236.021 288.114V135.564C236.021 114.56 218.995 97.5338 197.991 97.5338L114.581 97.5338C93.5779 97.5338 76.5513 114.56 76.5513 135.564V288.114C76.5513 309.117 93.5779 326.144 114.581 326.144H197.991C218.995 326.144 236.021 309.117 236.021 288.114Z" fill="#3B3B3B"/>
<path d="M223.331 287.004V123.054L89.2312 123.054V287.004H223.331Z" fill="#F0F0F0"/>
<path d="M156.711 315.934C160.666 315.934 163.871 312.728 163.871 308.774C163.871 304.819 160.666 301.614 156.711 301.614C152.757 301.614 149.551 304.819 149.551 308.774C149.551 312.728 152.757 315.934 156.711 315.934Z" fill="#F0F0F0"/>
<path d="M83.8612 208.774H40.6112C29.9908 208.774 21.3812 217.383 21.3812 228.004V327.454C21.3812 338.074 29.9908 346.684 40.6112 346.684H83.8612C94.4817 346.684 103.091 338.074 103.091 327.454V228.004C103.091 217.383 94.4817 208.774 83.8612 208.774Z" fill="#3B3B3B"/>
<path d="M62.2312 341.594C65.3461 341.594 67.8712 339.069 67.8712 335.954C67.8712 332.839 65.3461 330.314 62.2312 330.314C59.1163 330.314 56.5912 332.839 56.5912 335.954C56.5912 339.069 59.1163 341.594 62.2312 341.594Z" fill="#F0F0F0"/>
<path d="M94.8312 223.614H29.6312V323.034H94.8312V223.614Z" fill="#F0F0F0"/>
<path d="M390.381 170.674C390.149 168.388 389.279 166.214 387.872 164.398C386.464 162.583 384.575 161.198 382.42 160.403C380.264 159.609 377.929 159.435 375.68 159.902C373.43 160.369 371.357 161.458 369.697 163.045C368.036 164.632 366.854 166.654 366.286 168.88C365.717 171.106 365.785 173.447 366.482 175.636C367.178 177.825 368.475 179.775 370.226 181.263C371.976 182.751 374.109 183.718 376.381 184.054L411.151 202.504L430.071 190.284L390.381 172.824C390.441 172.108 390.441 171.389 390.381 170.674V170.674Z" fill="#DAACB1"/>
<path d="M566.861 108.134C566.861 102.242 565.114 96.4823 561.841 91.5833C558.567 86.6844 553.915 82.8661 548.471 80.6114C543.028 78.3567 537.038 77.7667 531.26 78.9162C525.481 80.0656 520.173 82.9028 516.007 87.069C511.84 91.2353 509.003 96.5433 507.854 102.322C506.704 108.101 507.294 114.09 509.549 119.534C511.804 124.977 515.622 129.63 520.521 132.903C525.42 136.177 531.179 137.924 537.071 137.924C544.972 137.924 552.549 134.785 558.136 129.198C563.723 123.612 566.861 116.035 566.861 108.134Z" fill="#DAACB1"/>
<path d="M483.151 475.554H461.211L468.281 532.904H483.151V475.554Z" fill="#DAACB1"/>
<path d="M457.661 528.054C455.21 528.053 452.783 528.534 450.519 529.472C448.254 530.409 446.197 531.783 444.464 533.516C442.731 535.249 441.356 537.307 440.419 539.571C439.482 541.836 439 544.263 439.001 546.714V547.324H486.941V528.054H457.661Z" fill="#2F2E41"/>
<path d="M545.011 475.554H523.061L530.141 532.904H545.011V475.554Z" fill="#DAACB1"/>
<path d="M519.521 528.054C517.07 528.053 514.642 528.534 512.377 529.471C510.112 530.408 508.054 531.783 506.32 533.516C504.586 535.248 503.211 537.306 502.273 539.571C501.334 541.835 500.851 544.263 500.851 546.714V546.714V547.324H548.801V528.054H519.521Z" fill="#2F2E41"/>
<path d="M549.761 515.254L550.461 300.324L472.811 297.324H472.241L459.471 426.234L457.871 508.364C457.838 509.72 458.315 511.04 459.207 512.062C460.099 513.084 461.343 513.734 462.691 513.884L481.541 516.104C482.968 516.261 484.4 515.849 485.524 514.955C486.648 514.061 487.373 512.76 487.541 511.334C487.541 511.184 487.541 511.044 487.541 510.894L490.891 423.644L507.191 369.324C507.359 368.951 507.648 368.646 508.011 368.458C508.374 368.27 508.79 368.211 509.191 368.289C509.593 368.368 509.955 368.581 510.22 368.892C510.485 369.203 510.637 369.595 510.651 370.004L517.001 512.834C517.065 514.116 517.579 515.335 518.454 516.276C519.328 517.216 520.507 517.817 521.781 517.974L543.551 520.654C544.317 520.749 545.093 520.679 545.83 520.45C546.566 520.22 547.245 519.836 547.821 519.324V519.324C548.417 518.824 548.899 518.202 549.234 517.5C549.568 516.797 549.748 516.031 549.761 515.254V515.254Z" fill="#2F2E41"/>
<path d="M469.171 310.054L547.381 312.104H547.521C548.74 312.098 549.922 311.688 550.882 310.936C551.842 310.185 552.524 309.136 552.821 307.954L575.821 214.524C582.991 185.414 566.621 156.104 539.321 149.184C532.916 147.55 526.236 147.305 519.728 148.465C513.22 149.626 507.036 152.166 501.591 155.914C495.4 160.196 490.182 165.736 486.278 172.172C482.373 178.608 479.87 185.795 478.931 193.264L463.931 303.864C463.738 305.299 464.122 306.751 465 307.903C465.878 309.054 467.177 309.81 468.611 310.004C468.796 310.034 468.984 310.051 469.171 310.054V310.054Z" fill="#0069A7"/>
<path d="M430.381 219.964C434.204 222.457 438.606 223.921 443.161 224.215C447.715 224.51 452.269 223.624 456.381 221.644L514.711 193.314C519.386 191.044 522.967 187.009 524.667 182.099C526.367 177.188 526.046 171.803 523.776 167.129C521.506 162.454 517.472 158.873 512.561 157.173C507.65 155.473 502.266 155.794 497.591 158.064C496.601 158.542 495.655 159.104 494.761 159.744L447.571 193.444L396.681 173.154C395.665 172.744 394.548 172.65 393.477 172.886C392.406 173.121 391.432 173.675 390.681 174.474L383.831 181.774C383.338 182.294 382.952 182.907 382.696 183.577C382.439 184.247 382.317 184.96 382.337 185.677C382.356 186.394 382.517 187.1 382.809 187.755C383.102 188.41 383.52 189.001 384.041 189.494C384.279 189.713 384.533 189.914 384.801 190.094L430.381 219.964Z" fill="#0069A7"/>
<path d="M524.501 112.134C524.133 113.75 524.422 115.446 525.303 116.851C526.184 118.255 527.586 119.252 529.201 119.624C529.475 119.683 529.752 119.726 530.031 119.754C533.741 120.084 537.821 120.294 539.031 119.754C541.311 118.684 544.371 118.914 545.691 121.284C546.12 122.159 546.404 123.098 546.531 124.064C547.721 130.244 547.451 129.874 548.641 136.064C550.978 136.112 553.295 135.633 555.421 134.664C556.421 134.244 557.361 133.904 558.311 133.484C566.681 129.794 572.201 119.614 572.401 109.364C572.424 104.369 571.429 99.4212 569.476 94.8236C567.523 90.226 564.653 86.0749 561.041 82.6238C554.227 76.3538 545.488 72.5815 536.251 71.9238C526.611 71.0838 515.751 73.9238 510.361 83.0438C509.544 84.255 508.981 85.6199 508.708 87.0554C508.434 88.4909 508.456 89.967 508.771 91.3938C509.018 92.2593 509.471 93.052 510.091 93.7038C512.501 96.1438 514.901 94.3138 517.351 94.1438C520.721 93.9238 523.751 97.0438 524.841 100.694C525.931 104.344 525.451 108.354 524.571 112.084L524.501 112.134Z" fill="#2F2E41"/>
<path d="M557.011 357.534C558.787 359.956 561.389 361.643 564.326 362.273C567.262 362.904 570.328 362.435 572.942 360.955C575.555 359.475 577.534 357.087 578.504 354.245C579.473 351.402 579.366 348.302 578.201 345.534L576.001 306.234L555.761 296.354L561.351 339.354C560.705 339.671 560.089 340.046 559.511 340.474C556.919 342.406 555.2 345.288 554.731 348.486C554.263 351.685 555.083 354.939 557.011 357.534V357.534Z" fill="#DAACB1"/>
<path d="M554.691 331.354C555.059 331.475 555.438 331.562 555.821 331.614L576.261 334.204C577.698 334.382 579.148 333.983 580.291 333.095C581.435 332.206 582.179 330.9 582.361 329.464C582.361 329.244 582.361 329.014 582.361 328.774L582.201 186.114C582.248 183.755 581.809 181.413 580.913 179.231C580.016 177.049 578.68 175.075 576.989 173.431C575.297 171.788 573.286 170.509 571.079 169.675C568.873 168.841 566.519 168.47 564.163 168.584C561.807 168.698 559.499 169.295 557.384 170.338C555.268 171.381 553.39 172.848 551.865 174.647C550.34 176.447 549.201 178.541 548.519 180.799C547.837 183.057 547.627 185.431 547.901 187.774L553.841 249.244L551.051 325.984C551.001 327.151 551.328 328.304 551.983 329.271C552.639 330.238 553.588 330.968 554.691 331.354V331.354Z" fill="#0069A7"/>
<path d="M586.161 548.254C586.32 548.254 586.477 548.222 586.624 548.162C586.771 548.101 586.904 548.012 587.017 547.899C587.129 547.787 587.218 547.654 587.279 547.507C587.34 547.36 587.371 547.203 587.371 547.044C587.371 546.885 587.34 546.728 587.279 546.581C587.218 546.434 587.129 546.301 587.017 546.188C586.904 546.076 586.771 545.987 586.624 545.926C586.477 545.865 586.32 545.834 586.161 545.834H336.311C336.152 545.834 335.995 545.865 335.848 545.926C335.701 545.987 335.568 546.076 335.456 546.188C335.343 546.301 335.254 546.434 335.193 546.581C335.132 546.728 335.101 546.885 335.101 547.044C335.101 547.203 335.132 547.36 335.193 547.507C335.254 547.654 335.343 547.787 335.456 547.899C335.568 548.012 335.701 548.101 335.848 548.162C335.995 548.222 336.152 548.254 336.311 548.254H586.161Z" fill="#CCCCCC"/>
<path d="M374.011 252.604C368.011 246.604 364.411 236.904 364.411 226.504V216.104H283.511V226.504C283.511 236.904 279.911 246.604 273.911 252.604L264.411 261.904H383.411L374.011 252.604Z" fill="#303030"/>
</g>
<path d="M28.1763 427.819C29.0083 429.515 29.4243 431.403 29.4243 433.483C29.4243 435.563 29.0083 437.451 28.1763 439.147C27.3443 440.811 26.2723 442.139 24.9603 443.131C22.3043 445.179 19.5523 446.203 16.7043 446.203H10.7043V451.627C10.7043 452.363 10.6723 452.923 10.6083 453.307C10.5763 453.659 10.4323 454.075 10.1763 454.555C9.72833 455.419 8.48033 455.851 6.43233 455.851C4.19233 455.851 2.88033 455.259 2.49633 454.075C2.30433 453.531 2.20833 452.699 2.20833 451.579V424.939C2.20833 424.203 2.22433 423.659 2.25633 423.307C2.32033 422.923 2.48033 422.491 2.73633 422.011C3.18433 421.147 4.43233 420.715 6.48033 420.715H16.7523C19.5683 420.715 22.3043 421.739 24.9603 423.787C26.2723 424.779 27.3443 426.123 28.1763 427.819ZM16.7523 437.707C17.7123 437.707 18.6563 437.355 19.5843 436.651C20.5123 435.947 20.9763 434.891 20.9763 433.483C20.9763 432.075 20.5123 431.019 19.5843 430.315C18.6563 429.579 17.6963 429.211 16.7043 429.211H10.7043V437.707H16.7523ZM58.6485 420.283C63.3845 420.283 67.4965 421.995 70.9845 425.419C74.4725 428.843 76.2165 433.099 76.2165 438.187C76.2165 443.243 74.5525 447.563 71.2245 451.147C67.8965 454.699 63.8005 456.475 58.9365 456.475C54.0725 456.475 49.9285 454.715 46.5045 451.195C43.1125 447.675 41.4165 443.483 41.4165 438.619C41.4165 435.963 41.8965 433.483 42.8565 431.179C43.8165 428.843 45.0965 426.891 46.6965 425.323C48.2965 423.755 50.1365 422.523 52.2165 421.627C54.2965 420.731 56.4405 420.283 58.6485 420.283ZM49.9125 438.379C49.9125 441.227 50.8245 443.547 52.6485 445.339C54.5045 447.099 56.5685 447.979 58.8405 447.979C61.1125 447.979 63.1605 447.115 64.9845 445.387C66.8085 443.659 67.7205 441.339 67.7205 438.427C67.7205 435.515 66.7925 433.179 64.9365 431.419C63.1125 429.659 61.0645 428.779 58.7925 428.779C56.5205 428.779 54.4725 429.675 52.6485 431.467C50.8245 433.227 49.9125 435.531 49.9125 438.379ZM115.883 449.947C116.363 451.099 116.603 451.931 116.603 452.443C116.603 453.659 115.611 454.683 113.627 455.515C112.603 455.963 111.771 456.187 111.131 456.187C110.523 456.187 110.011 456.043 109.595 455.755C109.211 455.435 108.923 455.115 108.731 454.795C108.411 454.187 107.163 451.291 104.987 446.107L103.499 446.203H97.4512V451.627C97.4512 452.363 97.4192 452.923 97.3552 453.307C97.3232 453.659 97.1792 454.075 96.9232 454.555C96.4752 455.419 95.2272 455.851 93.1792 455.851C90.9392 455.851 89.6272 455.259 89.2432 454.075C89.0512 453.531 88.9552 452.699 88.9552 451.579V424.939C88.9552 424.203 88.9712 423.659 89.0032 423.307C89.0672 422.923 89.2272 422.491 89.4832 422.011C89.9312 421.147 91.1792 420.715 93.2272 420.715H103.595C106.411 420.715 109.147 421.739 111.803 423.787C113.083 424.779 114.139 426.123 114.971 427.819C115.803 429.515 116.219 431.403 116.219 433.483C116.219 437.099 115.019 440.075 112.619 442.411C113.323 444.107 114.411 446.619 115.883 449.947ZM97.4512 437.707H103.595C104.523 437.707 105.451 437.355 106.379 436.651C107.307 435.947 107.771 434.891 107.771 433.483C107.771 432.075 107.307 431.019 106.379 430.315C105.451 429.579 104.491 429.211 103.499 429.211H97.4512V437.707ZM129.219 420.667H155.907C156.931 420.667 157.683 420.795 158.163 421.051C158.643 421.275 158.963 421.643 159.123 422.155C159.283 422.667 159.363 423.339 159.363 424.171C159.363 425.003 159.283 425.675 159.123 426.187C158.963 426.667 158.691 427.003 158.307 427.195C157.731 427.483 156.915 427.627 155.859 427.627H146.691V451.771C146.691 452.507 146.659 453.051 146.595 453.403C146.563 453.755 146.419 454.171 146.163 454.651C145.939 455.099 145.523 455.419 144.915 455.611C144.307 455.803 143.507 455.899 142.515 455.899C141.523 455.899 140.723 455.803 140.115 455.611C139.539 455.419 139.123 455.099 138.867 454.651C138.643 454.171 138.499 453.755 138.435 453.403C138.403 453.019 138.387 452.459 138.387 451.723V427.627H129.171C128.147 427.627 127.395 427.515 126.915 427.291C126.435 427.035 126.115 426.651 125.955 426.139C125.795 425.627 125.715 424.955 125.715 424.123C125.715 423.291 125.795 422.635 125.955 422.155C126.115 421.643 126.387 421.291 126.771 421.099C127.347 420.811 128.163 420.667 129.219 420.667ZM194.904 420.715C195.64 420.715 196.184 420.747 196.536 420.811C196.92 420.843 197.336 420.987 197.784 421.243C198.264 421.499 198.6 421.931 198.792 422.539C198.984 423.147 199.08 423.963 199.08 424.987C199.08 426.011 198.984 426.827 198.792 427.435C198.6 428.043 198.264 428.475 197.784 428.731C197.304 428.955 196.872 429.099 196.488 429.163C196.136 429.195 195.576 429.211 194.808 429.211H180.12V434.059H189.576C190.344 434.059 190.904 434.091 191.256 434.155C191.64 434.187 192.072 434.331 192.552 434.587C193.384 435.067 193.8 436.331 193.8 438.379C193.8 440.619 193.192 441.947 191.976 442.363C191.464 442.523 190.648 442.603 189.528 442.603H180.12V451.675C180.12 452.443 180.088 453.003 180.024 453.355C179.992 453.707 179.848 454.123 179.592 454.603C179.144 455.467 177.896 455.899 175.848 455.899C173.608 455.899 172.296 455.291 171.912 454.075C171.72 453.563 171.624 452.747 171.624 451.627V424.939C171.624 423.307 171.928 422.203 172.536 421.627C173.144 421.019 174.296 420.715 175.992 420.715H194.904ZM228.298 420.283C233.034 420.283 237.146 421.995 240.634 425.419C244.122 428.843 245.866 433.099 245.866 438.187C245.866 443.243 244.202 447.563 240.874 451.147C237.546 454.699 233.45 456.475 228.586 456.475C223.722 456.475 219.578 454.715 216.154 451.195C212.762 447.675 211.066 443.483 211.066 438.619C211.066 435.963 211.546 433.483 212.506 431.179C213.466 428.843 214.746 426.891 216.346 425.323C217.946 423.755 219.786 422.523 221.866 421.627C223.946 420.731 226.09 420.283 228.298 420.283ZM219.562 438.379C219.562 441.227 220.474 443.547 222.298 445.339C224.154 447.099 226.218 447.979 228.49 447.979C230.762 447.979 232.81 447.115 234.634 445.387C236.458 443.659 237.37 441.339 237.37 438.427C237.37 435.515 236.442 433.179 234.586 431.419C232.762 429.659 230.714 428.779 228.442 428.779C226.17 428.779 224.122 429.675 222.298 431.467C220.474 433.227 219.562 435.531 219.562 438.379ZM267.101 448.795H280.157C281.213 448.795 281.981 448.923 282.461 449.179C282.941 449.403 283.261 449.771 283.421 450.283C283.581 450.795 283.661 451.483 283.661 452.347C283.661 453.179 283.581 453.851 283.421 454.363C283.261 454.875 282.989 455.227 282.605 455.419C281.997 455.739 281.165 455.899 280.109 455.899H262.829C260.589 455.899 259.277 455.291 258.893 454.075C258.701 453.563 258.605 452.747 258.605 451.627V424.939C258.605 424.203 258.621 423.659 258.653 423.307C258.717 422.923 258.877 422.491 259.133 422.011C259.581 421.147 260.829 420.715 262.877 420.715C265.117 420.715 266.445 421.307 266.861 422.491C267.021 423.035 267.101 423.867 267.101 424.987V448.795ZM296.377 424.939C296.377 424.203 296.393 423.659 296.425 423.307C296.489 422.923 296.649 422.491 296.905 422.011C297.353 421.147 298.601 420.715 300.649 420.715C302.889 420.715 304.217 421.307 304.633 422.491C304.793 423.035 304.873 423.867 304.873 424.987V451.675C304.873 452.443 304.841 453.003 304.777 453.355C304.745 453.707 304.601 454.123 304.345 454.603C303.897 455.467 302.649 455.899 300.601 455.899C298.361 455.899 297.049 455.291 296.665 454.075C296.473 453.563 296.377 452.747 296.377 451.627V424.939ZM334.817 420.283C339.553 420.283 343.665 421.995 347.153 425.419C350.641 428.843 352.385 433.099 352.385 438.187C352.385 443.243 350.721 447.563 347.393 451.147C344.065 454.699 339.969 456.475 335.105 456.475C330.241 456.475 326.097 454.715 322.673 451.195C319.281 447.675 317.585 443.483 317.585 438.619C317.585 435.963 318.065 433.483 319.025 431.179C319.985 428.843 321.265 426.891 322.865 425.323C324.465 423.755 326.305 422.523 328.385 421.627C330.465 420.731 332.609 420.283 334.817 420.283ZM326.081 438.379C326.081 441.227 326.993 443.547 328.817 445.339C330.673 447.099 332.737 447.979 335.009 447.979C337.281 447.979 339.329 447.115 341.153 445.387C342.977 443.659 343.889 441.339 343.889 438.427C343.889 435.515 342.961 433.179 341.105 431.419C339.281 429.659 337.233 428.779 334.961 428.779C332.689 428.779 330.641 429.675 328.817 431.467C326.993 433.227 326.081 435.531 326.081 438.379Z" fill="#0069A7"/>
<defs>
<clipPath id="clip0">
<rect width="566" height="547.48" fill="white" transform="translate(21.3812 0.773804)"/>
</clipPath>
</defs>
</svg>
