<svg width="34" height="35" viewBox="0 0 34 35" fill="none" xmlns="http://www.w3.org/2000/svg">
<path d="M7.96723 34.1286H1.02797V11.9092H7.96723V34.1286ZM4.49386 8.87826C2.27491 8.87826 0.475098 7.05079 0.475098 4.84444C0.475098 3.78466 0.898502 2.76828 1.65217 2.01889C2.40583 1.26951 3.42802 0.848511 4.49386 0.848511C5.55971 0.848511 6.5819 1.26951 7.33556 2.01889C8.08923 2.76828 8.51263 3.78466 8.51263 4.84444C8.51263 7.05079 6.71207 8.87826 4.49386 8.87826ZM33.9387 34.1286H27.0143V23.3124C27.0143 20.7346 26.962 17.4288 23.4065 17.4288C19.7986 17.4288 19.2458 20.2294 19.2458 23.1266V34.1286H12.314V11.9092H18.9693V14.9401H19.0665C19.9929 13.1944 22.2559 11.352 25.6322 11.352C32.6551 11.352 33.9461 15.9504 33.9461 21.9232V34.1286H33.9387Z" fill="#3B3B3B"/>
</svg>
