<svg width="79" height="61" viewBox="0 0 79 61" fill="none" xmlns="http://www.w3.org/2000/svg">
<path d="M7.07288 44.6953V7.00879H0.894165V0.72168H17.6237C22.2246 0.72168 25.6692 0.998698 27.9576 1.55273C30.2701 2.10677 32.3056 3.51595 34.0641 5.78027C35.8226 8.02051 36.7018 10.6582 36.7018 13.6934C36.7018 16.0299 36.1718 18.1377 35.1119 20.0166C34.0761 21.8955 32.5465 23.3167 30.5231 24.2803C33.3173 25.2438 35.4612 26.8457 36.9547 29.0859C38.4723 31.3021 39.2311 33.8434 39.2311 36.71C39.2311 39.1911 38.665 41.4434 37.5328 43.4668C36.4248 45.4902 34.9433 47.056 33.0885 48.1641C31.2337 49.2721 29.1982 50.0189 26.9821 50.4043C24.79 50.7897 21.791 50.9824 17.985 50.9824H0.894165V44.6953H7.07288ZM14.6608 21.6426H19.3942C23.0074 21.6426 25.5247 21.0163 26.9459 19.7637C28.3912 18.487 29.1139 16.6201 29.1139 14.1631C29.1139 9.39355 25.874 7.00879 19.3942 7.00879H14.6608V21.6426ZM14.6608 44.6953H17.5153C21.249 44.6953 23.983 44.5146 25.7174 44.1533C27.4518 43.7679 28.861 42.8887 29.9449 41.5156C31.053 40.1185 31.6071 38.3359 31.6071 36.168C31.6071 34.1927 31.0771 32.5426 30.0172 31.2178C28.9814 29.8688 27.6324 28.9775 25.9703 28.5439C24.3323 28.0863 22.0078 27.8574 18.9967 27.8574H14.6608V44.6953Z" fill="white"/>
<path d="M41.2349 60.5767V54.2896L68.1538 16.603H48.6782V25.4556H42.4634V10.3159H77.7651V15.8804L50.3765 54.2896H72.3813V44.5698H78.5962V60.5767H41.2349Z" fill="white"/>
</svg>
