<svg width="78" height="61" viewBox="0 0 78 61" fill="none" xmlns="http://www.w3.org/2000/svg">
<path d="M6.45416 44.6953V7.00879H0.275452V0.72168H17.0049C21.6059 0.72168 25.0505 0.998698 27.3389 1.55273C29.6514 2.10677 31.6869 3.51595 33.4454 5.78027C35.2038 8.02051 36.0831 10.6582 36.0831 13.6934C36.0831 16.0299 35.5531 18.1377 34.4932 20.0166C33.4574 21.8955 31.9278 23.3167 29.9044 24.2803C32.6986 25.2438 34.8425 26.8457 36.336 29.0859C37.8536 31.3021 38.6124 33.8434 38.6124 36.71C38.6124 39.1911 38.0463 41.4434 36.9141 43.4668C35.8061 45.4902 34.3246 47.056 32.4698 48.1641C30.615 49.2721 28.5795 50.0189 26.3633 50.4043C24.1713 50.7897 21.1723 50.9824 17.3663 50.9824H0.275452V44.6953H6.45416ZM14.0421 21.6426H18.7755C22.3887 21.6426 24.906 21.0163 26.3272 19.7637C27.7725 18.487 28.4952 16.6201 28.4952 14.1631C28.4952 9.39355 25.2553 7.00879 18.7755 7.00879H14.0421V21.6426ZM14.0421 44.6953H16.8965C20.6303 44.6953 23.3643 44.5146 25.0987 44.1533C26.8331 43.7679 28.2422 42.8887 29.3262 41.5156C30.4343 40.1185 30.9883 38.3359 30.9883 36.168C30.9883 34.1927 30.4584 32.5426 29.3985 31.2178C28.3627 29.8688 27.0137 28.9775 25.3516 28.5439C23.7136 28.0863 21.3891 27.8574 18.378 27.8574H14.0421V44.6953Z" fill="#0069A7"/>
<path d="M40.6161 60.5767V54.2896L67.5351 16.603H48.0595V25.4556H41.8447V10.3159H77.1464V15.8804L49.7578 54.2896H71.7626V44.5698H77.9775V60.5767H40.6161Z" fill="#0069A7"/>
</svg>
